<?xml version="1.0" encoding="UTF-8" standalone="no"?>
<!-- Generator: Adobe Illustrator 21.0.0, SVG Export Plug-In . SVG Version: 6.00 Build 0) -->

<svg
   xmlns:dc="http://purl.org/dc/elements/1.1/"
   xmlns:cc="http://creativecommons.org/ns#"
   xmlns:rdf="http://www.w3.org/1999/02/22-rdf-syntax-ns#"
   xmlns:svg="http://www.w3.org/2000/svg"
   xmlns="http://www.w3.org/2000/svg"
   xmlns:sodipodi="http://sodipodi.sourceforge.net/DTD/sodipodi-0.dtd"
   xmlns:inkscape="http://www.inkscape.org/namespaces/inkscape"
   id="Layer_1"
   x="0px"
   y="0px"
   viewBox="0 0 272.5 86.2"
   style="enable-background:new 0 0 272.5 86.2;"
   xml:space="preserve"
   version="1.1"
   sodipodi:docname="header_logo_white.svg"
   inkscape:version="0.92.3 (2405546, 2018-03-11)"><metadata
   id="metadata90"><rdf:RDF><cc:Work
       rdf:about=""><dc:format>image/svg+xml</dc:format><dc:type
         rdf:resource="http://purl.org/dc/dcmitype/StillImage" /><dc:title></dc:title></cc:Work></rdf:RDF></metadata><defs
   id="defs88" /><sodipodi:namedview
   pagecolor="#ffffff"
   bordercolor="#666666"
   borderopacity="1"
   objecttolerance="10"
   gridtolerance="10"
   guidetolerance="10"
   inkscape:pageopacity="0"
   inkscape:pageshadow="2"
   inkscape:window-width="2185"
   inkscape:window-height="1394"
   id="namedview86"
   showgrid="false"
   inkscape:zoom="5.4756382"
   inkscape:cx="83.004379"
   inkscape:cy="6.7541387"
   inkscape:window-x="1334"
   inkscape:window-y="555"
   inkscape:window-maximized="0"
   inkscape:current-layer="g83" /> <style
   type="text/css"
   id="style2"> .st0{fill:#333333;} .st1{fill:url(#SVGID_1_);} .st2{fill:url(#SVGID_2_);} .st3{opacity:0.6;} .st4{fill:url(#SVGID_3_);} .st5{opacity:0.3;} .st6{fill:url(#SVGID_4_);} .st7{fill:url(#SVGID_5_);} </style> <g
   id="g83"> <g
   id="g10"
   style="fill:#ffffff;fill-opacity:1"> <path
   class="st0"
   d="M29.7,17.5v5.2H17.5v36h-5.4v-36H0v-5.2H29.7z"
   id="path4"
   style="fill:#ffffff;fill-opacity:1" /> <path
   class="st0"
   d="M48.2,28.5c3.4,0,6.2,1.1,8.3,3.3c2.1,2.2,3.1,5.1,3.1,8.8v18.1h-5.1V40.9c0-2.4-0.6-4.2-1.9-5.6 c-1.3-1.3-3.1-2-5.4-2c-2.5,0-4.6,0.8-6.2,2.4c-1.6,1.6-2.4,4-2.4,7.3v15.6h-5.1V17.5h5.1v16C40.7,30.2,43.9,28.5,48.2,28.5z"
   id="path6"
   style="fill:#ffffff;fill-opacity:1" /> <path
   class="st0"
   d="M69.1,46.3c0.5,2.6,1.7,4.7,3.6,6.1c1.9,1.5,4.2,2.2,7,2.2c3.9,0,6.7-1.4,8.5-4.3l4.4,2.5 c-2.9,4.4-7.2,6.6-12.9,6.6c-4.7,0-8.5-1.5-11.4-4.4c-2.9-2.9-4.4-6.6-4.4-11.1c0-4.4,1.4-8.1,4.3-11.1c2.9-2.9,6.6-4.4,11.1-4.4 c4.3,0,7.8,1.5,10.6,4.6c2.7,3,4.1,6.7,4.1,11c0,0.7-0.1,1.5-0.2,2.3H69.1z M79.3,33.3c-2.7,0-5,0.8-6.8,2.3 c-1.8,1.5-2.9,3.6-3.4,6.2h19.6c-0.4-2.8-1.5-4.9-3.3-6.4C83.7,34.1,81.6,33.3,79.3,33.3z"
   id="path8"
   style="fill:#ffffff;fill-opacity:1" /> </g> <g
   id="g26"
   style="fill:#ffffff;fill-opacity:1"> <path
   class="st0"
   d="M172.5,85.8L167,65.5h3.5l4.3,15.9l4.6-15.9h3.1l4.6,15.9l4.3-15.9h3.3l-5.5,20.3h-3.9L180.9,71l-4.3,14.9 H172.5z"
   id="path12"
   style="fill:#ffffff;fill-opacity:1" /> <path
   class="st0"
   d="M199.3,68.6c-0.4,0.4-0.9,0.6-1.4,0.6c-0.5,0-1-0.2-1.4-0.6c-0.4-0.4-0.6-0.9-0.6-1.4c0-0.5,0.2-1,0.6-1.4 c0.4-0.4,0.9-0.6,1.4-0.6s1,0.2,1.4,0.6c0.4,0.4,0.6,0.9,0.6,1.4C199.9,67.7,199.7,68.2,199.3,68.6z M196.3,85.8V71.3h3.1v14.5 H196.3z"
   id="path14"
   style="fill:#ffffff;fill-opacity:1" /> <path
   class="st0"
   d="M206.6,82.9h7.1v3h-11.3v-2.1l6.8-9.5h-6.5v-3h10.7v2.1L206.6,82.9z"
   id="path16"
   style="fill:#ffffff;fill-opacity:1" /> <path
   class="st0"
   d="M226.9,71.3h3.1v14.5h-3.1v-2.1c-1.2,1.6-2.9,2.5-5.1,2.5c-2,0-3.7-0.7-5.1-2.2c-1.4-1.5-2.1-3.3-2.1-5.4 c0-2.1,0.7-4,2.1-5.4c1.4-1.5,3.1-2.2,5.1-2.2c2.2,0,3.9,0.8,5.1,2.4V71.3z M219,81.9c0.9,0.9,2,1.3,3.3,1.3 c1.3,0,2.4-0.4,3.3-1.3c0.9-0.9,1.3-2,1.3-3.3c0-1.3-0.4-2.4-1.3-3.3c-0.9-0.9-2-1.3-3.3-1.3c-1.3,0-2.4,0.4-3.3,1.3 c-0.9,0.9-1.3,2-1.3,3.3C217.7,79.9,218.1,81,219,81.9z"
   id="path18"
   style="fill:#ffffff;fill-opacity:1" /> <path
   class="st0"
   d="M236.5,73.8c0.8-1.8,2.3-2.7,4.5-2.7v3.4c-1.2-0.1-2.2,0.2-3.1,0.9c-0.9,0.6-1.3,1.7-1.3,3.2v7.3h-3.1V71.3 h3.1V73.8z"
   id="path20"
   style="fill:#ffffff;fill-opacity:1" /> <path
   class="st0"
   d="M253.8,65.5h3.1v20.3h-3.1v-2.1c-1.2,1.6-2.9,2.5-5.1,2.5c-2,0-3.7-0.7-5.1-2.2c-1.4-1.5-2.1-3.3-2.1-5.4 c0-2.1,0.7-4,2.1-5.4c1.4-1.5,3.1-2.2,5.1-2.2c2.2,0,3.9,0.8,5.1,2.4V65.5z M246,81.9c0.9,0.9,2,1.3,3.3,1.3 c1.3,0,2.4-0.4,3.3-1.3c0.9-0.9,1.3-2,1.3-3.3c0-1.3-0.4-2.4-1.3-3.3c-0.9-0.9-2-1.3-3.3-1.3c-1.3,0-2.4,0.4-3.3,1.3 c-0.9,0.9-1.3,2-1.3,3.3C244.7,79.9,245.1,81,246,81.9z"
   id="path22"
   style="fill:#ffffff;fill-opacity:1" /> <path
   class="st0"
   d="M263.1,75.3c0,0.5,0.3,0.9,0.8,1.1c0.5,0.3,1.2,0.5,1.9,0.8c0.8,0.2,1.5,0.5,2.3,0.7c0.8,0.2,1.4,0.7,2,1.3 c0.5,0.7,0.8,1.5,0.8,2.5c0,1.4-0.5,2.5-1.6,3.3c-1.1,0.8-2.4,1.2-4,1.2c-1.4,0-2.7-0.3-3.7-0.9s-1.8-1.4-2.2-2.5l2.7-1.6 c0.5,1.4,1.6,2.1,3.2,2.1c1.6,0,2.5-0.5,2.5-1.6c0-0.5-0.3-0.8-0.8-1.1c-0.5-0.3-1.2-0.6-1.9-0.8c-0.8-0.2-1.5-0.5-2.3-0.7 c-0.8-0.2-1.4-0.7-2-1.3c-0.5-0.6-0.8-1.4-0.8-2.4c0-1.3,0.5-2.4,1.5-3.2c1-0.8,2.3-1.2,3.8-1.2c1.2,0,2.3,0.3,3.2,0.8 c0.9,0.5,1.7,1.3,2.2,2.2l-2.6,1.5c-0.5-1.1-1.4-1.7-2.7-1.7c-0.6,0-1.1,0.1-1.5,0.4C263.3,74.4,263.1,74.8,263.1,75.3z"
   id="path24"
   style="fill:#ffffff;fill-opacity:1" /> </g> <g
   id="g81"> <radialGradient
   id="SVGID_1_"
   cx="101.9263"
   cy="7.4004"
   r="55.2826"
   gradientUnits="userSpaceOnUse"> <stop
   offset="0"
   style="stop-color:#00E8FF"
   id="stop28" /> <stop
   offset="1"
   style="stop-color:#29ABE2"
   id="stop30" /> </radialGradient> <path
   class="st1"
   d="M119.4,44.5h-8.1v11.2c0,2-1.7,3.7-3.7,3.7h-4.9V22c0-2.5,2-4.5,4.5-4.5h11.6c8.9,0,13.5,4.7,13.5,13.5 C132.2,39.3,127.7,44.5,119.4,44.5z M117.2,36.9c4.3,0.1,6.5-2,6.5-6s-2-6.1-6-6.1h-6.3v12.1H117.2z"
   id="path33" /> <g
   id="g62"> <g
   id="g42"> <radialGradient
   id="SVGID_2_"
   cx="124.1598"
   cy="-6.2125"
   r="34.2035"
   gradientUnits="userSpaceOnUse"> <stop
   offset="0"
   style="stop-color:#00E8FF"
   id="stop35" /> <stop
   offset="1"
   style="stop-color:#29ABE2"
   id="stop37" /> </radialGradient> <path
   class="st2"
   d="M135.1,24.9c-0.7,0-1.4-0.4-1.7-1.1c-1.5-3.6-4.6-6.4-8.4-7.7c-1-0.3-1.5-1.4-1.1-2.4 c0.3-1,1.4-1.5,2.4-1.1c4.8,1.7,8.7,5.3,10.6,9.8c0.4,0.9,0,2-1,2.4C135.6,24.9,135.3,24.9,135.1,24.9z"
   id="path40" /> </g> <g
   class="st3"
   id="g51"> <radialGradient
   id="SVGID_3_"
   cx="124.1598"
   cy="-6.2125"
   r="34.2035"
   gradientUnits="userSpaceOnUse"> <stop
   offset="0"
   style="stop-color:#00E8FF"
   id="stop44" /> <stop
   offset="1"
   style="stop-color:#29ABE2"
   id="stop46" /> </radialGradient> <path
   class="st4"
   d="M141.5,23.4c-0.8,0-1.5-0.5-1.7-1.2c-2-5.6-6.7-10.2-12.5-12.2c-1-0.3-1.5-1.4-1.1-2.4 c0.3-1,1.4-1.5,2.4-1.1c6.8,2.4,12.4,7.8,14.8,14.4c0.3,1-0.1,2-1.1,2.4C141.9,23.4,141.7,23.4,141.5,23.4z"
   id="path49" /> </g> <g
   class="st5"
   id="g60"> <radialGradient
   id="SVGID_4_"
   cx="124.1598"
   cy="-6.2125"
   r="34.2035"
   gradientUnits="userSpaceOnUse"> <stop
   offset="0"
   style="stop-color:#00E8FF"
   id="stop53" /> <stop
   offset="1"
   style="stop-color:#29ABE2"
   id="stop55" /> </radialGradient> <path
   class="st6"
   d="M147.9,21.9c-0.8,0-1.5-0.5-1.8-1.3c-2.8-8.3-8.9-14.4-17.3-17.1c-1-0.3-1.5-1.4-1.2-2.3 c0.3-1,1.4-1.5,2.3-1.2c9.5,3.1,16.5,9.9,19.7,19.4c0.3,1-0.2,2-1.2,2.3C148.3,21.9,148.1,21.9,147.9,21.9z"
   id="path58" /> </g> </g> <path
   class="st0"
   d="M143.3,35.3h-8.2c1-6,5.2-9,12.8-9c9,0,13.6,3,13.7,9v11.1c0,9-5.4,13-14.2,13.6c-7.8,0.6-13.3-3-13.3-10.2 c0.2-7.8,5.9-9.9,14.1-10.7c3.5-0.4,5.3-1.5,5.3-3.3c-0.2-1.8-1.9-2.8-5.3-2.8C145.3,33.1,143.7,33.8,143.3,35.3z M153.6,46.1v-3 c-1.9,0.8-4.1,1.5-6.5,2c-3.3,0.6-4.9,2.2-4.9,4.6c0.2,2.6,1.5,3.8,4.1,3.8C150.9,53.4,153.6,50.7,153.6,46.1z"
   id="path64"
   style="fill:#ffffff;fill-opacity:1" /> <path
   class="st0"
   d="M180.5,60.2c-9.9,0-14.9-5.7-15.2-16.9c0-11.2,5-16.8,15-17c7.9,0,12.6,3.5,14,10.6h-8.9 c-1-2.2-2.7-3.4-5.3-3.4c-4.3,0-6.5,3.3-6.5,9.7c0,6.5,2.3,9.7,6.8,9.7c1.9,0,3.6-0.8,4.9-2.3c0.8-0.8,1.7-1.2,2.8-1.2h6.2 C192.8,56.1,188,60.4,180.5,60.2z"
   id="path66"
   style="fill:#ffffff;fill-opacity:1" /> <path
   class="st0"
   d="M206.8,21.5v18.1L216.9,28h9.9l-11.3,12.1l11.4,19.4h-9.9l-5.8-10.7c-1-1.8-2.1-2.8-3.1-2.8 c-0.9,0.2-1.3,0.7-1.3,1.6v11.9h-8.2V17.5h4.3C205,17.5,206.8,19.4,206.8,21.5z"
   id="path68"
   style="fill:#ffffff;fill-opacity:1" /> <path
   class="st0"
   d="M240.9,60.2c-9.9-0.3-14.8-6-14.8-17.1s5-16.6,14.9-16.7c10.4,0,15.2,6.3,14.6,19.1h-21.1 c0.3,5,2.5,7.5,6.5,7.5c1.9,0,3.7-0.8,5.3-2.3c0.7-0.8,1.7-1.2,2.8-1.2h6C253.3,56.4,248.9,60.2,240.9,60.2z M234.6,39.6h12.3 c-0.5-4.3-2.5-6.5-6-6.5S235.3,35.3,234.6,39.6z"
   id="path70"
   style="fill:#ffffff;fill-opacity:1" /> <path
   class="st0"
   d="M268.5,32.7h-0.9v18.1c0,1.4,0.8,2.1,2.4,2.1h2.5v6.2c-2.6,0.2-5.5,0.2-8.6-0.1c-3.1-0.3-4.6-2.2-4.5-5.9 V17.5h4.3c2.2,0,3.9,2,3.9,4.1v5.2h4.9v1.8C272.5,31,270.8,32.7,268.5,32.7z"
   id="path72"
   style="fill:#ffffff;fill-opacity:1" /> <radialGradient
   id="SVGID_5_"
   cx="106.7455"
   cy="36.8352"
   r="18.9292"
   gradientUnits="userSpaceOnUse"> <stop
   offset="0"
   style="stop-color:#1B1464"
   id="stop74" /> <stop
   offset="1"
   style="stop-color:#00B5FF;stop-opacity:0"
   id="stop76" /> </radialGradient> <path
   class="st7"
   d="M108.2,59.4h-5.6v-8c0-3.8,3.1-7,7-7h1.6v11.9C111.2,58.1,109.9,59.4,108.2,59.4z"
   id="path79" /> </g> </g> </svg>